<?xml version="1.0" standalone="no"?>
<!DOCTYPE svg PUBLIC "-//W3C//DTD SVG 20010904//EN"
 "http://www.w3.org/TR/2001/REC-SVG-20010904/DTD/svg10.dtd">
<svg version="1.0" xmlns="http://www.w3.org/2000/svg"
 width="260.000000pt" height="260.000000pt" viewBox="0 0 260.000000 260.000000"
 preserveAspectRatio="xMidYMid meet">
<metadata>
Created by potrace 1.11, written by Peter Selinger 2001-2013
</metadata>
<g transform="translate(0.000000,260.000000) scale(0.100000,-0.100000)"
fill="#000000" stroke="none">
<path d="M1135 2530 c-22 -5 -56 -11 -75 -14 -141 -23 -370 -123 -495 -218
-198 -149 -365 -376 -439 -598 -66 -198 -82 -455 -42 -648 33 -157 127 -367
218 -487 239 -315 578 -491 963 -501 121 -3 172 1 280 20 255 46 526 207 700
416 153 184 237 366 280 607 13 74 14 338 2 388 -3 11 -14 60 -26 108 -51 215
-171 421 -337 582 -176 171 -378 279 -619 331 -87 18 -341 27 -410 14z m422
-99 c217 -54 410 -160 557 -307 51 -52 156 -178 156 -189 0 -4 9 -20 20 -35
50 -70 124 -252 145 -357 28 -139 27 -373 -4 -497 -55 -226 -160 -414 -322
-574 -98 -97 -93 -98 -118 21 -13 56 -25 113 -27 127 -3 14 -23 104 -44 200
-21 96 -45 211 -54 255 -20 98 -19 93 -51 240 -14 66 -28 136 -31 155 -3 19
-8 38 -10 41 -2 3 -6 21 -9 40 -13 75 -37 154 -57 187 -43 70 -123 91 -203 52
-82 -40 -97 -114 -58 -294 106 -491 107 -497 28 -512 -37 -7 -69 7 -85 36 -8
15 -46 176 -65 275 -32 162 -72 312 -94 345 -64 99 -209 90 -267 -16 -23 -42
-14 -122 41 -378 57 -267 62 -304 45 -336 -12 -23 -62 -35 -89 -20 -34 18 -47
55 -90 260 -23 107 -55 256 -71 330 -16 74 -45 212 -65 305 -20 94 -38 179
-41 190 -2 11 -7 34 -9 50 -3 17 -8 38 -11 47 -3 9 -6 25 -8 35 -2 10 -10 46
-16 81 -7 34 -11 64 -9 66 2 2 34 22 70 44 116 70 300 136 419 149 30 3 57 7
59 9 14 13 294 -7 368 -25z m-982 -278 c5 -21 9 -42 11 -48 1 -5 5 -26 8 -45
4 -19 9 -43 12 -53 3 -11 7 -29 9 -40 2 -12 35 -173 75 -357 39 -184 74 -346
76 -360 3 -14 7 -33 10 -42 3 -10 8 -30 10 -45 41 -230 77 -318 140 -348 65
-31 152 -7 190 51 36 54 33 92 -36 414 -41 190 -41 189 -47 247 -5 46 -3 54
20 77 29 29 62 33 93 11 34 -23 34 -25 114 -402 44 -206 71 -272 125 -297 60
-29 136 -17 184 27 31 29 43 62 42 122 -1 54 -2 66 -31 195 -10 47 -28 130
-40 186 -11 55 -23 111 -26 125 -4 13 -7 46 -7 73 -1 39 4 52 22 67 31 26 76
24 101 -3 24 -26 31 -52 76 -263 18 -88 45 -214 59 -280 14 -66 28 -131 30
-145 3 -14 7 -34 9 -45 3 -11 12 -54 21 -95 9 -41 19 -86 21 -98 3 -13 25
-117 49 -230 25 -114 45 -210 45 -213 0 -4 -21 -20 -47 -35 -125 -74 -265
-124 -412 -149 -106 -17 -318 -13 -416 8 -404 89 -725 375 -864 770 -17 48
-30 89 -30 92 0 5 -4 29 -17 85 -10 46 -12 284 -3 353 34 239 163 492 339 665
36 34 67 62 71 62 4 0 10 -17 14 -37z"/>
</g>
</svg>
